<?xml version="1.0" encoding="UTF-8"?>
<svg id="Layer_1_copy" xmlns="http://www.w3.org/2000/svg" viewBox="0 0 811.58 648.39">
  <defs>
    <style>
      .cls-1 {
        fill: #9ccbfa;
        stroke: #eaeaea;
        stroke-linecap: round;
        stroke-linejoin: round;
        stroke-width: 2px;
      }
    </style>
  </defs>
  <path class="cls-1" d="M12.7,46.24c79.3,34.73,149.69,130.13,206.53,195.45s108.6,146.84,166.29,211.42c.57,34.66-18.63,68.97-48.45,86.61-6.96,29.25-30.87,53.46-60.1,60.42-15.97,3.81-28.84,16.79-44.16,22.7-15.26,5.89-31.59,8.52-47.41,12.66-15.87,4.15-31.51,9.76-47.8,7.89-19.93-2.28-42.96,4.85-62.65,1.01-26.37,10.33-56-13.14-66.5-39.46-10.51-26.32-6.85-55.86-3.54-84.01C23.45,363.5,26.06,204.19,12.7,46.24h0Z"/>
  <ellipse class="cls-1" cx="34.67" cy="595.18" rx="7.94" ry="10.44" transform="translate(-529.12 401.31) rotate(-67.69)"/>
  <ellipse class="cls-1" cx="39.66" cy="572.14" rx="7.94" ry="10.44" transform="translate(-504.71 391.64) rotate(-67.69)"/>
  <ellipse class="cls-1" cx="72.6" cy="620.48" rx="10.44" ry="7.94"/>
  <ellipse class="cls-1" cx="80.53" cy="597.16" rx="10.44" ry="7.94"/>
  <ellipse class="cls-1" cx="114.52" cy="627.21" rx="10.44" ry="7.94"/>
  <ellipse class="cls-1" cx="116.5" cy="599.92" rx="10.44" ry="7.94"/>
  <ellipse class="cls-1" cx="164.74" cy="617.67" rx="10.44" ry="7.94"/>
  <ellipse class="cls-1" cx="165.59" cy="594.47" rx="10.44" ry="7.94"/>
  <ellipse class="cls-1" cx="207.74" cy="613.11" rx="10.44" ry="7.94" transform="translate(-155.64 77.37) rotate(-15.43)"/>
  <ellipse class="cls-1" cx="210.72" cy="587.3" rx="10.44" ry="7.94" transform="translate(-148.66 77.23) rotate(-15.43)"/>
  <ellipse class="cls-1" cx="254.58" cy="591.53" rx="10.44" ry="7.94" transform="translate(-179.63 115.94) rotate(-19.11)"/>
  <ellipse class="cls-1" cx="246.16" cy="573.67" rx="10.44" ry="7.94" transform="translate(-174.25 112.2) rotate(-19.11)"/>
  <ellipse class="cls-1" cx="288.3" cy="578.14" rx="8.35" ry="6.35" transform="translate(-173.39 126.25) rotate(-19.11)"/>
  <ellipse class="cls-1" cx="278.64" cy="560.19" rx="8.35" ry="6.35" transform="translate(-168.04 122.09) rotate(-19.11)"/>
  <ellipse class="cls-1" cx="316.3" cy="544.36" rx="8.35" ry="6.35" transform="translate(-313.27 546.76) rotate(-60.06)"/>
  <ellipse class="cls-1" cx="345.55" cy="508.16" rx="8.35" ry="6.35" transform="translate(-258.25 393.91) rotate(-45.07)"/>
  <ellipse class="cls-1" cx="365.05" cy="473.17" rx="8.35" ry="6.35" transform="translate(-193.21 686.47) rotate(-73.26)"/>
  <g>
    <g>
      <path class="cls-1" d="M178.61,636.72c2.68-2.23.76-3.54-3.06-3.23-3.82.3-8.9,1.81-13.69,3.46-7.23,2.49-14.4,5.45-20.98,8.65,11.9-1.37,25.22-3.95,39.09-7.57"/>
      <path class="cls-1" d="M143.48,644.65c-3.37-.9-2.17-2.89,1.42-4.22,3.6-1.33,8.84-2.1,13.88-2.62,7.6-.78,15.36-1.11,22.67-.97-11.38,3.75-24.54,7.02-38.65,9.57"/>
    </g>
    <g>
      <path class="cls-1" d="M125.7,643.71c3.07-1.32,1.45-2.64-2.36-3-3.8-.36-9.08,0-14.1.54-7.57.8-15.19,1.98-22.27,3.44,11.95.81,25.51.89,39.82.26"/>
      <path class="cls-1" d="M89.72,644.36c-3.12-1.22-1.56-2.59,2.23-3.06s9.08-.25,14.12.14c7.6.59,15.27,1.55,22.41,2.81-11.9,1.13-25.45,1.6-39.78,1.37"/>
    </g>
    <g>
      <path class="cls-1" d="M73.56,645.83c3.2-.96,1.73-2.46-2.01-3.25s-9.03-1.02-14.08-1.06c-7.62-.06-15.32.25-22.52.9,11.77,2.15,25.24,3.77,39.53,4.76"/>
      <path class="cls-1" d="M37.72,642.4c-2.97-1.57-1.25-2.75,2.56-2.79s9.05.78,14.01,1.74c7.49,1.45,15,3.27,21.95,5.33-11.95-.22-25.47-1.29-39.68-3.14"/>
    </g>
    <g>
      <path class="cls-1" d="M32.95,635.11c3,1.47,2.94-.63.73-3.75-2.21-3.13-5.93-6.89-9.61-10.35-5.55-5.22-11.41-10.23-17.13-14.65,7.19,9.58,15.97,19.93,25.78,30.37"/>
      <path class="cls-1" d="M9,608.23c-1.11-3.17.94-2.88,3.77-.31,2.83,2.56,6.11,6.72,9.1,10.8,4.52,6.15,8.79,12.59,12.49,18.83-8.62-8.29-17.82-18.26-26.99-29.28"/>
    </g>
    <g>
      <path class="cls-1" d="M222.65,625.94c2.78-1.85.94-2.85-2.87-2.51-3.81.34-8.94,1.67-13.77,3.12-7.3,2.18-14.57,4.73-21.26,7.47,11.89-1.4,25.24-3.81,39.19-7.06"/>
      <path class="cls-1" d="M187.38,633.18c-3.29-.63-2.01-2.26,1.63-3.42,3.64-1.16,8.89-1.91,13.91-2.45,7.59-.82,15.3-1.28,22.55-1.35-11.49,3.31-24.72,6.26-38.85,8.66"/>
    </g>
    <g>
      <path class="cls-1" d="M262.54,606.4c2.17-2.54.14-3-3.44-1.64s-8.15,4.04-12.41,6.74c-6.44,4.07-12.75,8.5-18.45,12.95,11.06-4.57,23.26-10.5,35.81-17.41"/>
      <path class="cls-1" d="M230.56,622.93c-3.35.29-2.55-1.63.64-3.73,3.18-2.1,8.03-4.25,12.72-6.13,7.08-2.84,14.38-5.38,21.34-7.41-10.17,6.29-22.11,12.72-35.06,18.86"/>
    </g>
    <g>
      <path class="cls-1" d="M304.18,585.56c2.17-2.54.13-3-3.44-1.64-3.58,1.36-8.15,4.04-12.41,6.74-6.44,4.07-12.75,8.5-18.45,12.95,11.06-4.57,23.26-10.5,35.81-17.41"/>
      <path class="cls-1" d="M272.2,602.09c-3.35.29-2.55-1.63.64-3.73,3.18-2.1,8.03-4.25,12.72-6.13,7.08-2.84,14.38-5.38,21.34-7.41-10.17,6.29-22.11,12.72-35.06,18.86"/>
    </g>
    <g>
      <path class="cls-1" d="M337.55,538.42c.3-3.32-1.63-2.52-3.76.66s-4.31,8.01-6.22,12.68c-2.88,7.05-5.46,14.32-7.54,21.25,6.37-10.14,12.88-22.04,19.12-34.95"/>
      <path class="cls-1" d="M321.04,570.43c-2.57,2.17-3.03.14-1.64-3.42s4.09-8.12,6.83-12.37c4.13-6.41,8.61-12.71,13.11-18.4-4.65,11.02-10.67,23.18-17.67,35.69"/>
    </g>
    <g>
      <path class="cls-1" d="M371.67,506.1c1.21-3.11-.87-2.87-3.79-.41s-6.35,6.5-9.48,10.46c-4.73,5.98-9.22,12.25-13.13,18.33,8.93-7.98,18.48-17.61,28.04-28.29"/>
      <path class="cls-1" d="M346.95,532.27c-3.06,1.37-2.94-.7-.63-3.74,2.31-3.03,6.18-6.66,9.98-9.99,5.74-5.02,11.79-9.83,17.69-14.05-7.51,9.3-16.66,19.32-26.85,29.4"/>
    </g>
    <g>
      <path class="cls-1" d="M385.71,461.76c-.35-3.32-2.09-2.15-3.56,1.38-1.46,3.53-2.66,8.69-3.63,13.65-1.46,7.48-2.57,15.11-3.26,22.31,4.28-11.19,8.36-24.14,11.96-38.01"/>
      <path class="cls-1" d="M375.75,496.36c-2.09,2.63-2.93.73-2.27-3.03.66-3.76,2.43-8.76,4.29-13.46,2.8-7.1,5.98-14.15,9.28-20.61-2.42,11.72-5.95,24.81-10.39,38.45"/>
    </g>
  </g>
  <path class="cls-1" d="M153.19,197.85c-13.09-27.6-25.77-45.37-48.53-65.71-10.36-9.26-70.87-36.09-73.41-43.89,20.43,62.81,69.52,231.3,72.12,234.61,30.49,38.7,67.14,124.67,86.26,87.81,4.46-60.73-9.94-156.96-36.44-212.82Z"/>
  <path class="cls-1" d="M69.16,523.03c17.1-78.88,20.08-197.2,18.59-204.64-7.56-37.8-51.31-226.95-57.26-188.26-13.38,49.86,5.21,306.58-10.41,404.06-1.34,8.38,43.2,15.97,49.08-11.16h0Z"/>
  <path class="cls-1" d="M97.94,330.41c.63,49.01,1.22,98.39-7.75,146.57-5.08,27.28-10.99,54.77-12.73,82.47,5.16-.69,10.52.21,15.16,2.56,1.79.9,3.61,2.05,5.62,1.94s4.06-1.48,5.89-.66c1.35.61,1.95,2.15,2.91,3.27,1.72,2.01,4.62,2.64,7.25,2.43s5.16-1.12,7.75-1.66c6.08-1.26,13.56-.42,19.12,2.35,10.69-16.91,7.96-123.21,12.69-154.91-13.82-25.6-38.95-61.8-57.18-84.47"/>
  <path class="cls-1" d="M187.18,429.42c-3.23.69-5.01-.79-7.94-2.3-1.7,1.47-3.4,2.93-5.1,4.4-2.15-1.18-4.29-2.36-6.43-3.54-1.12,32.11-3.64,64.17-7.57,96.05-1.29,10.48-1.73,20.44,2.32,30.18,6.78,2.83,14.49,3.39,21.61,1.56,5-.59,10.2.71,14.35,3.56,2.5-1.19,4.61-3.16,5.99-5.56,2.29,1.41,4.88,2.34,7.55,2.71,1-5.42,6.87-9.44,12.29-8.4,3.38-3.27,2.6-8.79,1.53-13.38-6.14-26.32-13.48-52.35-22.01-77.99-1.24-3.74-2.55-7.54-5.01-10.61-4.42-5.51-12.77-9.72-11.59-16.68h.01Z"/>
  <path class="cls-1" d="M196.47,386.62c.37-10.59.25-21.19-.37-31.77-.36-6.03-5.23-22.82,1.17-26.16,7.27,7.58,11.56,21.53,16.59,31,5.85,11,11.92,21.89,18.4,32.54,22.88,37.63,51.39,73.7,59.57,116.98.72,3.84,1.21,8.1-.87,11.41-1.35,2.15-3.57,3.56-5.72,4.89-5.06,3.14-10.32,6.36-16.22,7.15-2.64.35-6.16.9-6.46,3.55-1.62-.7-3.25-1.39-4.87-2.09,2.89,3.57-2.25,9.08-6.73,8.08s-7.2-5.51-8.91-9.77c-4.8-11.97-5.78-25.06-8.09-37.75-3.84-21.06-11.5-41.42-22.5-59.79-5.66-9.45-12.32-18.7-14.4-29.52-1.18-6.16-.8-12.49-.58-18.76h-.01Z"/>
  <path class="cls-1" d="M311.45,466.36c.08-10.15,2.16-21.83.49-31.75-1.88-11.13-10.08-21.77-16.92-30.34-9.11-11.42-19.2-22.01-29.27-32.58-11.37-11.94-22.74-23.87-34.11-35.81-11.63-12.22-23.52-24.63-38.3-32.77,5.45,16.39,14.34,31.62,25.92,44.43,3.59,3.97,7.47,7.76,10.13,12.4,2.13,3.71,3.39,7.84,4.96,11.82,3.61,9.19,8.85,17.63,14.06,26.01,5.64,9.08,11.29,18.16,16.93,27.24,10.17,16.36,20.4,32.81,33.31,47.09,2.18,2.41,5.15,4.98,8.29,4.1,3.74-1.06,4.49-5.96,4.52-9.85h0Z"/>
  <path class="cls-1" d="M41.13,12.41c5.03,19.45,3.19,38.36-11.22,52.35-2.47,2.39-5.32,4.88-5.78,8.28-.84,6.19,6.21,10.02,11.54,13.28,20.51,12.56,26.45,38.9,34.97,61.39,28.82,76.09,101.57,125.55,148.17,192.23,25.63,36.67,60.13,84.26,99.09,106.2,49.51,27.88,107.47,5.09,158.4-20.09,53.41-26.41,89.58-49.73,147.24-64.74,30.37-7.9,66.2-19.81,95.61-30.76,39.88-14.85,97.26-45.14,90.36-87.15C781.94,75.56,317.91-2.57,111.63,1.66c-24.02.49-49.14-.28-70.49,10.75h-.01Z"/>
  <path class="cls-1" d="M288.19,59.93c-44.57-11.87-89.54-23.74-135.55-28.43-22.65-2.31-45.53-3-68.22-.88-6.51.61-24.4-.17-28.69,4.47-1.4,1.51-5.65,17.04-3.58,17.67,62.1,19.02,123.04,41.77,182.41,68.1,31.08,13.78,62.14,28.68,95.55,34.95,26.45,4.96,53.94,4.32,80.14-1.86,3.55-.84,7.41-2.01,9.36-5.1,2.6-4.13.58-9.49-1.48-13.91-8.11-17.4-17.02-35.73-33.21-46.02-8.7-5.53-18.84-8.26-28.8-10.91-22.65-6.03-45.29-12.06-67.94-18.09h0Z"/>
  <path class="cls-1" d="M210.93,128.35c16.14,10.4,35.3,25.56,54.21,28.92,36.28,54.76,72.55,109.53,108.83,164.3,11.64,17.58,23.69,36.34,24.56,57.42-4.51-1.89-9.01-3.79-13.52-5.68,3.02,3.52,2.78,9.37-.51,12.63-8.59,10.46-25.19,13.2-36.69,6.06-7.03-4.37-11.75-11.53-16.36-18.4-51.42-76.59-116.06-143.23-180.32-209.41-34.08-35.09-68.16-70.19-102.24-105.29,53.88,13.83,115.28,39.3,162.04,69.45Z"/>
  <path class="cls-1" d="M475.03,311.06c-4.58.7-63.11-99.4-71.61-108.93-25.27-28.36-73.3-34.87-116.74-41.75,29.98,38.31,123.88,167.37,148.72,185.7-2.31-2.56.8-6.97,4.25-7.08,3.45-.11,6.4,2.32,8.98,4.61.45-3.71.89-7.43,1.34-11.14,6.7,3.67,14.17,5.92,21.78,6.58-3.53-8.42-5.77-17.38-6.63-26.47,3.3-.5,6.61-1.01,9.91-1.51h0Z"/>
  <path class="cls-1" d="M514.55,221.6c-12.44-17.24-37.18-28.46-55.3-38.75-8.28-4.7-13.05-9.31-22.83-11.16-12.83-2.43-22.41,7.89-30.82,7.53,18.68,25.3,38.96,49.43,60.67,72.18,6.36,6.67,13.06,13.37,21.49,17.08,9.93,4.37,21.39,4.19,31.33,8.53,11.38,4.97,19.45,15.2,27.03,25.04-6.97-11.88-12.43-24.64-16.2-37.89-4.15-14.59-6.48-30.25-15.36-42.55h-.01Z"/>
  <path class="cls-1" d="M602.29,240.48c-4.04,1.81-5.88,6.78-5.42,11.19.46,4.4,2.71,8.39,4.92,12.23,2.18,3.8,4.42,7.67,7.66,10.62,3.24,2.96,7.71,4.9,12.01,4.05s7.99-5.11,7.21-9.43c-.64-3.56-3.87-6.08-7.17-7.54-3.31-1.46-6.93-2.25-9.98-4.18-5.33-3.37-8.16-10.26-6.75-16.4"/>
  <path class="cls-1" d="M781.05,293.97c-.88-2.15-3.73-2.93-5.92-2.16-2.19.76-3.78,2.66-5,4.63-1.84,2.97-3.09,6.32-3.64,9.77,6.3-2.73,12.11-6.61,17.04-11.39"/>
  <path class="cls-1" d="M756.71,309.86c-.67-2.22-3.43-3.28-5.68-2.73s-4.02,2.28-5.43,4.12c-2.12,2.78-3.69,5.99-4.58,9.37,6.55-2.1,12.7-5.39,18.08-9.66"/>
  <path class="cls-1" d="M466.34,59.95c-.07,1.09-.14,2.19-.21,3.29-6.33-.76-12.91.76-18.27,4.21,5.36,4.78,13.26,5.02,20.44,4.84,11.81-.31,23.62-1.08,35.37-2.32-.74-2.56-3.86-3.42-6.49-3.87-10.33-1.75-20.67-3.51-31-5.26"/>
  <ellipse class="cls-1" cx="369.59" cy="436.22" rx="8.92" ry="10.42"/>
  <ellipse class="cls-1" cx="428.71" cy="420.59" rx="5.85" ry="6.83"/>
  <ellipse class="cls-1" cx="773.39" cy="244.23" rx="5.85" ry="6.83"/>
  <ellipse class="cls-1" cx="787.52" cy="226.74" rx="5.85" ry="6.83"/>
  <ellipse class="cls-1" cx="758.18" cy="213.94" rx="5.85" ry="6.83"/>
  <ellipse class="cls-1" cx="767.3" cy="189.99" rx="5.85" ry="6.83"/>
  <ellipse class="cls-1" cx="416.81" cy="402.36" rx="5.85" ry="6.83"/>
  <ellipse class="cls-1" cx="468.12" cy="402.73" rx="5.85" ry="6.83"/>
  <ellipse class="cls-1" cx="510.88" cy="389.71" rx="5.85" ry="6.83"/>
  <ellipse class="cls-1" cx="452.88" cy="375.57" rx="5.85" ry="6.83"/>
  <ellipse class="cls-1" cx="496.38" cy="356.59" rx="9.6" ry="11.21"/>
  <ellipse class="cls-1" cx="550.3" cy="357.34" rx="5.85" ry="6.83"/>
  <ellipse class="cls-1" cx="591.2" cy="344.69" rx="5.85" ry="6.83"/>
  <ellipse class="cls-1" cx="628.01" cy="329.06" rx="5.85" ry="6.83"/>
  <ellipse class="cls-1" cx="525.76" cy="313.06" rx="9.6" ry="11.21"/>
  <ellipse class="cls-1" cx="570.75" cy="304.13" rx="11.66" ry="13.62"/>
  <ellipse class="cls-1" cx="556.8" cy="203.61" rx="11.66" ry="13.62"/>
  <ellipse class="cls-1" cx="528.87" cy="179.67" rx="11.66" ry="13.62"/>
  <ellipse class="cls-1" cx="554.81" cy="127.79" rx="11.66" ry="13.62"/>
  <ellipse class="cls-1" cx="520.89" cy="111.83" rx="11.66" ry="13.62"/>
  <ellipse class="cls-1" cx="435.09" cy="90.58" rx="11.66" ry="13.62"/>
  <ellipse class="cls-1" cx="611.28" cy="298.18" rx="6.15" ry="7.18"/>
  <ellipse class="cls-1" cx="648.83" cy="302.27" rx="6.15" ry="7.18"/>
  <ellipse class="cls-1" cx="658.5" cy="329.81" rx="6.15" ry="7.18"/>
  <ellipse class="cls-1" cx="710.92" cy="312.69" rx="6.15" ry="7.18"/>
  <ellipse class="cls-1" cx="699.77" cy="279.95" rx="6.15" ry="7.18"/>
  <ellipse class="cls-1" cx="736.21" cy="288.88" rx="6.15" ry="7.18"/>
  <ellipse class="cls-1" cx="737.69" cy="234.93" rx="6.15" ry="7.18"/>
  <ellipse class="cls-1" cx="755.54" cy="274" rx="6.15" ry="7.18"/>
  <ellipse class="cls-1" cx="738.44" cy="190.28" rx="6.15" ry="7.18"/>
  <ellipse class="cls-1" cx="731.37" cy="164.24" rx="6.15" ry="7.18"/>
  <ellipse class="cls-1" cx="700.46" cy="143.3" rx="6.15" ry="7.18"/>
  <ellipse class="cls-1" cx="405.33" cy="76.26" rx="6.15" ry="7.18"/>
  <ellipse class="cls-1" cx="664.54" cy="123.35" rx="6.15" ry="7.18"/>
  <ellipse class="cls-1" cx="626.63" cy="107.39" rx="6.15" ry="7.18"/>
  <ellipse class="cls-1" cx="333.78" cy="439.51" rx="3.77" ry="4.4"/>
  <path class="cls-1" d="M807.07,245.44c-2.21-.65-4.6,1.09-5.36,3.27s-.28,4.6.5,6.78c1.17,3.28,3,6.33,5.35,8.91,1.8-6.61,2.39-13.55,1.73-20.37"/>
  <path class="cls-1" d="M806.01,266.14c-1.57-1.69-4.51-1.41-6.28.07s-2.59,3.81-3.03,6.08c-.67,3.43-.65,6.98.05,10.4,4.92-4.77,8.97-10.43,11.89-16.63"/>
  <path class="cls-1" d="M635.64,161.31c6.62,15.27,21.46,25.14,34.91,34.19,14.54,9.8,29.09,19.59,43.63,29.38-12.72-8.56-47.25-106.71-78.54-63.57Z"/>
  <path class="cls-1" d="M625.78,178.25c-.12,3.47-.24,6.94-.36,10.41-3.07-2.25-6.82-3.54-10.61-3.66.86,2.1.98,4.51.31,6.68-5.04-.41-10.08-.83-15.12-1.24,17.63,28.68,42.48,52.87,71.62,69.71,2.56-15.17-6.86-29.51-15.92-41.93-8.23-11.29-16.54-22.51-24.93-33.67"/>
  <path class="cls-1" d="M602.66,232.21c-2.39-6.96-4.6-21.58-14.42-22.48-11.75-1.08-6.49,9.33-8.85,15.67-.62,1.68-2.4,2.57-3.79,3.71-3.56,2.93-4.72,8.04-4.05,12.6s2.86,8.74,5.02,12.82c2.04,3.86,5.56,8.37,9.71,7.04,3.21-1.03,4.62-5.17,7.83-6.19,1.92-.61,4.02.06,6.02-.23,4.41-.64,6.87-5.78,6.54-10.23s-2.57-8.49-4.01-12.71h0Z"/>
  <path class="cls-1" d="M578.73,136.36c-2.21-.61-4.12,1.79-4.68,4.02s-.6,4.77-2.18,6.44c-1.62,1.71-4.24,1.86-6.43,2.74-4.94,2-7.38,8.14-6.17,13.33,1.2,5.19,5.37,9.32,10.15,11.67,4.79,2.35,10.17,3.15,15.47,3.68,2.96.29,6.2.44,8.64-1.26,1.58-1.09,2.59-2.81,3.4-4.55,3.11-6.64,3.89-14.57,1.08-21.35-2.81-6.78-9.52-12.06-16.85-12.17"/>
  <path class="cls-1" d="M481.8,135.69c-7.7,3.52-11.64,13.31-9.12,21.4,2.53,8.09,10.79,13.81,19.26,13.97,3.08.06,6.34-.62,8.58-2.74,3.59-3.41,3.36-9.23,1.94-13.98-1.49-5-4.06-9.79-8.06-13.13s-9.54-5.04-14.57-3.69"/>
  <path class="cls-1" d="M481.87,93.95c-7.46-.2-14.96.91-22.04,3.27-1.01.34-2.12.79-2.57,1.76-.57,1.22.17,2.63.91,3.77,3.56,5.51,7.52,11,13.04,14.54,5.53,3.55,12.98,4.77,18.65,1.46,5.93-3.46,8.42-11.77,5.39-17.93-3.03-6.16-11.14-9.24-17.49-6.65"/>
  <path class="cls-1" d="M595.7,114.69c-4.95,3.86-9.89,7.72-14.84,11.58-.76.59-1.57,1.26-1.78,2.2-.18.78.1,1.58.45,2.29,2.58,5.19,8.86,7.22,14.57,8.2,4.07.7,8.18,1.12,12.3,1.27,3.53.13,7.21.02,10.37-1.57,3.15-1.59,5.62-5.05,5-8.53-.78-4.39-5.62-6.6-9.82-8.1-6.14-2.18-12.27-4.37-18.41-6.56"/>
  <path class="cls-1" d="M558.96,73.39c-1.21,1.46-2.99,2.43-4.87,2.64,2.55,3.84.12,9.91-4.37,10.93-2.52.57-5.93.17-6.93,2.55-.79,1.86.72,3.84,2.23,5.17,6.34,5.58,14.8,8.67,23.24,8.48,3.08-.07,6.67-.94,7.86-3.78,1.49-3.56-1.82-7.78-.41-11.38,3.4.2,6.83-.37,9.98-1.66-6.19-7.09-15.28-11.55-24.67-12.11"/>
  <path class="cls-1" d="M477.35,49.19c-3.32-1.04-7.18-.11-9.66,2.34,10.45,7.55,25.31,8.42,36.57,2.15-9.65-2.44-19.37-4.64-29.13-6.61"/>
  <path class="cls-1" d="M386.63,46.72c-3.32-1.04-7.18-.11-9.66,2.34,10.45,7.55,25.31,8.42,36.57,2.15-9.65-2.44-19.37-4.64-29.13-6.61"/>
  <path class="cls-1" d="M408.99,34.81c-3.37-.88-7.18.26-9.53,2.83,10.82,7,25.7,7.11,36.63.27-9.77-1.94-19.58-3.65-29.43-5.11"/>
  <path class="cls-1" d="M337.38,23.05c-3.38-.84-7.18.33-9.51,2.92,10.89,6.9,25.76,6.88,36.63-.06-9.79-1.86-19.62-3.48-29.48-4.85"/>
  <path class="cls-1" d="M281.37,15.53c-3.42-.67-7.15.7-9.34,3.41,11.24,6.32,26.09,5.52,36.58-1.98-9.87-1.34-19.77-2.43-29.69-3.29"/>
</svg>